/* XPM */
static char *title_4_inactive[] = {
/* columns rows colors chars-per-pixel */
"15 21 2 1 ",
"  c gray27",
". c #585858",
/* pixels */
"...............",
"               ",
"               ",
"               ",
"               ",
"               ",
"               ",
"               ",
"               ",
"               ",
"               ",
"               ",
"               ",
"               ",
"               ",
"               ",
"               ",
"               ",
"               ",
"               ",
"               "
};
