/* XPM */
static char *title_2_active[] = {
/* columns rows colors chars-per-pixel */
"15 21 2 1 ",
"  c gray27",
". c #5D5D5D",
/* pixels */
"...............",
"               ",
"               ",
"               ",
"               ",
"               ",
"               ",
"               ",
"               ",
"               ",
"               ",
"               ",
"               ",
"               ",
"               ",
"               ",
"               ",
"               ",
"               ",
"               ",
"               "
};
