/* XPM */
static char *top_right_active[] = {
/* columns rows colors chars-per-pixel */
"10 21 9 1 ",
"  c gray27",
". c #464646",
"X c #4B4B4B",
"o c #505050",
"O c #555555",
"+ c #565656",
"@ c gray34",
"# c #5D5D5D",
"$ c None",
/* pixels */
"#####@$$$$",
"     X++$$",
"       o@$",
"        @$",
"        X+",
"         #",
"         #",
"         #",
"         #",
"         #",
"         #",
"         #",
"         #",
"         #",
"         #",
"         #",
"         #",
"         #",
"         #",
"         #",
"         #"
};
