/* XPM */
static char *top_right_inactive[] = {
/* columns rows colors chars-per-pixel */
"10 21 11 1 ",
"  c gray27",
". c #464646",
"X c gray28",
"o c #4C4C4C",
"O c gray30",
"+ c #4E4E4E",
"@ c #515151",
"# c #565656",
"$ c gray34",
"% c #585858",
"& c None",
/* pixels */
"%%%%%%&&&&",
"    Xo$$&&",
"       @$&",
"       o$&",
"        o%",
"         %",
"         %",
"         %",
"         %",
"         %",
"         %",
"         %",
"         %",
"         %",
"         %",
"         %",
"         %",
"         %",
"         %",
"         %",
"         %"
};
