/* XPM */
static char *close_inactive[] = {
/* columns rows colors chars-per-pixel */
"24 16 2 1 ",
"  c #2D2D2D2D2D2D",
". c #888888888888",
/* pixels */
"                        ",
"                        ",
"                        ",
"                        ",
"        ..    ..        ",
"        ...  ...        ",
"         ......         ",
"          ....          ",
"          ....          ",
"         ......         ",
"        ...  ...        ",
"        ..    ..        ",
"                        ",
"                        ",
"                        ",
"                        "
};
