/* XPM */
static char *hide_prelight[] = {
/* columns rows colors chars-per-pixel */
"24 16 2 1 ",
"  c #2D2D2D2D2D2D",
". c #D6D649493737",
/* pixels */
"                        ",
"                        ",
"                        ",
"                        ",
"                        ",
"                        ",
"                        ",
"        ........        ",
"        ........        ",
"                        ",
"                        ",
"                        ",
"                        ",
"                        ",
"                        ",
"                        "
};
