/* XPM */
static char *top_right_active[] = {
/* columns rows colors chars-per-pixel */
"2 18 36 1 ",
"  c #484848484848",
". c None",
"X c #343434343434",
"o c #484848484848",
"O c #2D2D2D2D2D2D",
"+ c #484848484848",
"@ c #2D2D2D2D2D2D",
"# c #484848484848",
"$ c #2D2D2D2D2D2D",
"% c #484848484848",
"& c #2D2D2D2D2D2D",
"* c #484848484848",
"= c #2D2D2D2D2D2D",
"- c #484848484848",
"; c #2D2D2D2D2D2D",
": c #484848484848",
"> c #2D2D2D2D2D2D",
", c #484848484848",
"< c #2D2D2D2D2D2D",
"1 c #484848484848",
"2 c #2D2D2D2D2D2D",
"3 c #484848484848",
"4 c #2D2D2D2D2D2D",
"5 c #484848484848",
"6 c #2D2D2D2D2D2D",
"7 c #484848484848",
"8 c #2D2D2D2D2D2D",
"9 c #484848484848",
"0 c #2D2D2D2D2D2D",
"q c #484848484848",
"w c #2D2D2D2D2D2D",
"e c #484848484848",
"r c #2D2D2D2D2D2D",
"t c #484848484848",
"y c #2D2D2D2D2D2D",
"u c #484848484848",
/* pixels */
" .",
"Xo",
"O+",
"@#",
"$%",
"&*",
"=-",
";:",
">,",
"<1",
"23",
"45",
"67",
"89",
"0q",
"we",
"rt",
"yu"
};
